<mxfile host="www.draw.io" modified="2019-11-20T15:50:43.215Z" agent="Mozilla/5.0 (Windows NT 10.0; Win64; x64) AppleWebKit/537.36 (KHTML, like Gecko) Chrome/78.0.3904.108 Safari/537.36" etag="yb1Huc1pkNct1kjzxkPF" version="12.2.7" type="github" pages="1">
  <diagram id="ks2A7EucgP2BNm0lF7E0" name="Page-1">
    <mxGraphModel dx="1422" dy="794" grid="1" gridSize="10" guides="1" tooltips="1" connect="1" arrows="1" fold="1" page="1" pageScale="1" pageWidth="827" pageHeight="1169" math="0" shadow="0">
      <root>
        <mxCell id="0"/>
        <mxCell id="1" parent="0"/>
        <mxCell id="uocUyu8FgRilAEcmeCP6-1" value="Usuario &lt;&lt;abstracta&gt;&gt;" style="swimlane;fontStyle=1;align=center;verticalAlign=top;childLayout=stackLayout;horizontal=1;startSize=26;horizontalStack=0;resizeParent=1;resizeParentMax=0;resizeLast=0;collapsible=1;marginBottom=0;" parent="1" vertex="1">
          <mxGeometry x="201" y="40" width="160" height="138" as="geometry"/>
        </mxCell>
        <mxCell id="uocUyu8FgRilAEcmeCP6-2" value="- email: string" style="text;strokeColor=none;fillColor=none;align=left;verticalAlign=top;spacingLeft=4;spacingRight=4;overflow=hidden;rotatable=0;points=[[0,0.5],[1,0.5]];portConstraint=eastwest;" parent="uocUyu8FgRilAEcmeCP6-1" vertex="1">
          <mxGeometry y="26" width="160" height="24" as="geometry"/>
        </mxCell>
        <mxCell id="uocUyu8FgRilAEcmeCP6-24" value="- pass: string" style="text;strokeColor=none;fillColor=none;align=left;verticalAlign=top;spacingLeft=4;spacingRight=4;overflow=hidden;rotatable=0;points=[[0,0.5],[1,0.5]];portConstraint=eastwest;" parent="uocUyu8FgRilAEcmeCP6-1" vertex="1">
          <mxGeometry y="50" width="160" height="24" as="geometry"/>
        </mxCell>
        <mxCell id="uocUyu8FgRilAEcmeCP6-3" value="" style="line;strokeWidth=1;fillColor=none;align=left;verticalAlign=middle;spacingTop=-1;spacingLeft=3;spacingRight=3;rotatable=0;labelPosition=right;points=[];portConstraint=eastwest;" parent="uocUyu8FgRilAEcmeCP6-1" vertex="1">
          <mxGeometry y="74" width="160" height="8" as="geometry"/>
        </mxCell>
        <mxCell id="uocUyu8FgRilAEcmeCP6-4" value="+ iniciarSesion()" style="text;strokeColor=none;fillColor=none;align=left;verticalAlign=top;spacingLeft=4;spacingRight=4;overflow=hidden;rotatable=0;points=[[0,0.5],[1,0.5]];portConstraint=eastwest;" parent="uocUyu8FgRilAEcmeCP6-1" vertex="1">
          <mxGeometry y="82" width="160" height="28" as="geometry"/>
        </mxCell>
        <mxCell id="uocUyu8FgRilAEcmeCP6-120" value="+ cerrarSesion()" style="text;strokeColor=none;fillColor=none;align=left;verticalAlign=top;spacingLeft=4;spacingRight=4;overflow=hidden;rotatable=0;points=[[0,0.5],[1,0.5]];portConstraint=eastwest;" parent="uocUyu8FgRilAEcmeCP6-1" vertex="1">
          <mxGeometry y="110" width="160" height="28" as="geometry"/>
        </mxCell>
        <mxCell id="uocUyu8FgRilAEcmeCP6-27" value="Alumno" style="swimlane;fontStyle=1;align=center;verticalAlign=top;childLayout=stackLayout;horizontal=1;startSize=26;horizontalStack=0;resizeParent=1;resizeParentMax=0;resizeLast=0;collapsible=1;marginBottom=0;" parent="1" vertex="1">
          <mxGeometry x="80" y="270" width="170" height="234" as="geometry"/>
        </mxCell>
        <mxCell id="uocUyu8FgRilAEcmeCP6-28" value="- nombre: string" style="text;strokeColor=none;fillColor=none;align=left;verticalAlign=top;spacingLeft=4;spacingRight=4;overflow=hidden;rotatable=0;points=[[0,0.5],[1,0.5]];portConstraint=eastwest;" parent="uocUyu8FgRilAEcmeCP6-27" vertex="1">
          <mxGeometry y="26" width="170" height="24" as="geometry"/>
        </mxCell>
        <mxCell id="uocUyu8FgRilAEcmeCP6-29" value="- apellido: string" style="text;strokeColor=none;fillColor=none;align=left;verticalAlign=top;spacingLeft=4;spacingRight=4;overflow=hidden;rotatable=0;points=[[0,0.5],[1,0.5]];portConstraint=eastwest;" parent="uocUyu8FgRilAEcmeCP6-27" vertex="1">
          <mxGeometry y="50" width="170" height="24" as="geometry"/>
        </mxCell>
        <mxCell id="uocUyu8FgRilAEcmeCP6-33" value="- tipoDoc: string" style="text;strokeColor=none;fillColor=none;align=left;verticalAlign=top;spacingLeft=4;spacingRight=4;overflow=hidden;rotatable=0;points=[[0,0.5],[1,0.5]];portConstraint=eastwest;" parent="uocUyu8FgRilAEcmeCP6-27" vertex="1">
          <mxGeometry y="74" width="170" height="24" as="geometry"/>
        </mxCell>
        <mxCell id="uocUyu8FgRilAEcmeCP6-35" value="- numDoc: string" style="text;strokeColor=none;fillColor=none;align=left;verticalAlign=top;spacingLeft=4;spacingRight=4;overflow=hidden;rotatable=0;points=[[0,0.5],[1,0.5]];portConstraint=eastwest;" parent="uocUyu8FgRilAEcmeCP6-27" vertex="1">
          <mxGeometry y="98" width="170" height="24" as="geometry"/>
        </mxCell>
        <mxCell id="uocUyu8FgRilAEcmeCP6-36" value="- avatar: file" style="text;strokeColor=none;fillColor=none;align=left;verticalAlign=top;spacingLeft=4;spacingRight=4;overflow=hidden;rotatable=0;points=[[0,0.5],[1,0.5]];portConstraint=eastwest;" parent="uocUyu8FgRilAEcmeCP6-27" vertex="1">
          <mxGeometry y="122" width="170" height="24" as="geometry"/>
        </mxCell>
        <mxCell id="uocUyu8FgRilAEcmeCP6-83" value="- empresa: Empresa" style="text;strokeColor=none;fillColor=none;align=left;verticalAlign=top;spacingLeft=4;spacingRight=4;overflow=hidden;rotatable=0;points=[[0,0.5],[1,0.5]];portConstraint=eastwest;" parent="uocUyu8FgRilAEcmeCP6-27" vertex="1">
          <mxGeometry y="146" width="170" height="24" as="geometry"/>
        </mxCell>
        <mxCell id="uocUyu8FgRilAEcmeCP6-30" value="" style="line;strokeWidth=1;fillColor=none;align=left;verticalAlign=middle;spacingTop=-1;spacingLeft=3;spacingRight=3;rotatable=0;labelPosition=right;points=[];portConstraint=eastwest;" parent="uocUyu8FgRilAEcmeCP6-27" vertex="1">
          <mxGeometry y="170" width="170" height="8" as="geometry"/>
        </mxCell>
        <mxCell id="uocUyu8FgRilAEcmeCP6-31" value="+ hacerCurso(curso)" style="text;strokeColor=none;fillColor=none;align=left;verticalAlign=top;spacingLeft=4;spacingRight=4;overflow=hidden;rotatable=0;points=[[0,0.5],[1,0.5]];portConstraint=eastwest;" parent="uocUyu8FgRilAEcmeCP6-27" vertex="1">
          <mxGeometry y="178" width="170" height="28" as="geometry"/>
        </mxCell>
        <mxCell id="uocUyu8FgRilAEcmeCP6-32" value="+ darExamen(curso)" style="text;strokeColor=none;fillColor=none;align=left;verticalAlign=top;spacingLeft=4;spacingRight=4;overflow=hidden;rotatable=0;points=[[0,0.5],[1,0.5]];portConstraint=eastwest;" parent="uocUyu8FgRilAEcmeCP6-27" vertex="1">
          <mxGeometry y="206" width="170" height="28" as="geometry"/>
        </mxCell>
        <mxCell id="uocUyu8FgRilAEcmeCP6-49" value="Empresa" style="swimlane;fontStyle=1;align=center;verticalAlign=top;childLayout=stackLayout;horizontal=1;startSize=26;horizontalStack=0;resizeParent=1;resizeParentMax=0;resizeLast=0;collapsible=1;marginBottom=0;" parent="1" vertex="1">
          <mxGeometry x="370" y="270" width="160" height="294" as="geometry"/>
        </mxCell>
        <mxCell id="uocUyu8FgRilAEcmeCP6-114" value="- idEmpresa: string" style="text;strokeColor=none;fillColor=none;align=left;verticalAlign=top;spacingLeft=4;spacingRight=4;overflow=hidden;rotatable=0;points=[[0,0.5],[1,0.5]];portConstraint=eastwest;" parent="uocUyu8FgRilAEcmeCP6-49" vertex="1">
          <mxGeometry y="26" width="160" height="26" as="geometry"/>
        </mxCell>
        <mxCell id="uocUyu8FgRilAEcmeCP6-50" value="- razonSocial: string" style="text;strokeColor=none;fillColor=none;align=left;verticalAlign=top;spacingLeft=4;spacingRight=4;overflow=hidden;rotatable=0;points=[[0,0.5],[1,0.5]];portConstraint=eastwest;" parent="uocUyu8FgRilAEcmeCP6-49" vertex="1">
          <mxGeometry y="52" width="160" height="26" as="geometry"/>
        </mxCell>
        <mxCell id="uocUyu8FgRilAEcmeCP6-53" value="- cuit: int" style="text;strokeColor=none;fillColor=none;align=left;verticalAlign=top;spacingLeft=4;spacingRight=4;overflow=hidden;rotatable=0;points=[[0,0.5],[1,0.5]];portConstraint=eastwest;" parent="uocUyu8FgRilAEcmeCP6-49" vertex="1">
          <mxGeometry y="78" width="160" height="26" as="geometry"/>
        </mxCell>
        <mxCell id="uocUyu8FgRilAEcmeCP6-54" value="- direccion: string" style="text;strokeColor=none;fillColor=none;align=left;verticalAlign=top;spacingLeft=4;spacingRight=4;overflow=hidden;rotatable=0;points=[[0,0.5],[1,0.5]];portConstraint=eastwest;" parent="uocUyu8FgRilAEcmeCP6-49" vertex="1">
          <mxGeometry y="104" width="160" height="26" as="geometry"/>
        </mxCell>
        <mxCell id="uocUyu8FgRilAEcmeCP6-55" value="- localidad: string" style="text;strokeColor=none;fillColor=none;align=left;verticalAlign=top;spacingLeft=4;spacingRight=4;overflow=hidden;rotatable=0;points=[[0,0.5],[1,0.5]];portConstraint=eastwest;" parent="uocUyu8FgRilAEcmeCP6-49" vertex="1">
          <mxGeometry y="130" width="160" height="26" as="geometry"/>
        </mxCell>
        <mxCell id="uocUyu8FgRilAEcmeCP6-56" value="- provincia: string" style="text;strokeColor=none;fillColor=none;align=left;verticalAlign=top;spacingLeft=4;spacingRight=4;overflow=hidden;rotatable=0;points=[[0,0.5],[1,0.5]];portConstraint=eastwest;" parent="uocUyu8FgRilAEcmeCP6-49" vertex="1">
          <mxGeometry y="156" width="160" height="26" as="geometry"/>
        </mxCell>
        <mxCell id="uocUyu8FgRilAEcmeCP6-61" value="- logo: file" style="text;strokeColor=none;fillColor=none;align=left;verticalAlign=top;spacingLeft=4;spacingRight=4;overflow=hidden;rotatable=0;points=[[0,0.5],[1,0.5]];portConstraint=eastwest;" parent="uocUyu8FgRilAEcmeCP6-49" vertex="1">
          <mxGeometry y="182" width="160" height="26" as="geometry"/>
        </mxCell>
        <mxCell id="uocUyu8FgRilAEcmeCP6-121" value="- cursos: curso" style="text;strokeColor=none;fillColor=none;align=left;verticalAlign=top;spacingLeft=4;spacingRight=4;overflow=hidden;rotatable=0;points=[[0,0.5],[1,0.5]];portConstraint=eastwest;" parent="uocUyu8FgRilAEcmeCP6-49" vertex="1">
          <mxGeometry y="208" width="160" height="26" as="geometry"/>
        </mxCell>
        <mxCell id="uocUyu8FgRilAEcmeCP6-51" value="" style="line;strokeWidth=1;fillColor=none;align=left;verticalAlign=middle;spacingTop=-1;spacingLeft=3;spacingRight=3;rotatable=0;labelPosition=right;points=[];portConstraint=eastwest;" parent="uocUyu8FgRilAEcmeCP6-49" vertex="1">
          <mxGeometry y="234" width="160" height="8" as="geometry"/>
        </mxCell>
        <mxCell id="uocUyu8FgRilAEcmeCP6-52" value="+ ABMCursos(curso)" style="text;strokeColor=none;fillColor=none;align=left;verticalAlign=top;spacingLeft=4;spacingRight=4;overflow=hidden;rotatable=0;points=[[0,0.5],[1,0.5]];portConstraint=eastwest;" parent="uocUyu8FgRilAEcmeCP6-49" vertex="1">
          <mxGeometry y="242" width="160" height="26" as="geometry"/>
        </mxCell>
        <mxCell id="uocUyu8FgRilAEcmeCP6-129" value="+ ABMAlumnos(alumno)" style="text;strokeColor=none;fillColor=none;align=left;verticalAlign=top;spacingLeft=4;spacingRight=4;overflow=hidden;rotatable=0;points=[[0,0.5],[1,0.5]];portConstraint=eastwest;" parent="uocUyu8FgRilAEcmeCP6-49" vertex="1">
          <mxGeometry y="268" width="160" height="26" as="geometry"/>
        </mxCell>
        <mxCell id="uocUyu8FgRilAEcmeCP6-91" value="1" style="endArrow=open;html=1;endSize=12;startArrow=diamondThin;startSize=14;startFill=1;edgeStyle=orthogonalEdgeStyle;align=left;verticalAlign=bottom;" parent="1" source="uocUyu8FgRilAEcmeCP6-83" target="uocUyu8FgRilAEcmeCP6-49" edge="1">
          <mxGeometry x="-1" y="3" relative="1" as="geometry">
            <mxPoint x="230" y="600" as="sourcePoint"/>
            <mxPoint x="320" y="490" as="targetPoint"/>
            <Array as="points">
              <mxPoint x="310" y="428"/>
              <mxPoint x="310" y="280"/>
            </Array>
          </mxGeometry>
        </mxCell>
        <mxCell id="uocUyu8FgRilAEcmeCP6-104" value="" style="edgeStyle=orthogonalEdgeStyle;rounded=0;orthogonalLoop=1;jettySize=auto;html=1;entryX=0.459;entryY=-0.004;entryDx=0;entryDy=0;entryPerimeter=0;" parent="1" source="uocUyu8FgRilAEcmeCP6-1" target="uocUyu8FgRilAEcmeCP6-49" edge="1">
          <mxGeometry relative="1" as="geometry">
            <mxPoint x="320" y="258" as="targetPoint"/>
            <Array as="points">
              <mxPoint x="280" y="220"/>
              <mxPoint x="444" y="220"/>
            </Array>
          </mxGeometry>
        </mxCell>
        <mxCell id="uocUyu8FgRilAEcmeCP6-105" value="Curso" style="swimlane;fontStyle=1;align=center;verticalAlign=top;childLayout=stackLayout;horizontal=1;startSize=26;horizontalStack=0;resizeParent=1;resizeParentMax=0;resizeLast=0;collapsible=1;marginBottom=0;" parent="1" vertex="1">
          <mxGeometry x="590" y="270" width="160" height="140" as="geometry"/>
        </mxCell>
        <mxCell id="uocUyu8FgRilAEcmeCP6-106" value="- nombre: string" style="text;strokeColor=none;fillColor=none;align=left;verticalAlign=top;spacingLeft=4;spacingRight=4;overflow=hidden;rotatable=0;points=[[0,0.5],[1,0.5]];portConstraint=eastwest;" parent="uocUyu8FgRilAEcmeCP6-105" vertex="1">
          <mxGeometry y="26" width="160" height="26" as="geometry"/>
        </mxCell>
        <mxCell id="uocUyu8FgRilAEcmeCP6-116" value="- video: link" style="text;strokeColor=none;fillColor=none;align=left;verticalAlign=top;spacingLeft=4;spacingRight=4;overflow=hidden;rotatable=0;points=[[0,0.5],[1,0.5]];portConstraint=eastwest;" parent="uocUyu8FgRilAEcmeCP6-105" vertex="1">
          <mxGeometry y="52" width="160" height="26" as="geometry"/>
        </mxCell>
        <mxCell id="uocUyu8FgRilAEcmeCP6-117" value="- material: link" style="text;strokeColor=none;fillColor=none;align=left;verticalAlign=top;spacingLeft=4;spacingRight=4;overflow=hidden;rotatable=0;points=[[0,0.5],[1,0.5]];portConstraint=eastwest;" parent="uocUyu8FgRilAEcmeCP6-105" vertex="1">
          <mxGeometry y="78" width="160" height="26" as="geometry"/>
        </mxCell>
        <mxCell id="uocUyu8FgRilAEcmeCP6-118" value="- examen: link" style="text;strokeColor=none;fillColor=none;align=left;verticalAlign=top;spacingLeft=4;spacingRight=4;overflow=hidden;rotatable=0;points=[[0,0.5],[1,0.5]];portConstraint=eastwest;" parent="uocUyu8FgRilAEcmeCP6-105" vertex="1">
          <mxGeometry y="104" width="160" height="26" as="geometry"/>
        </mxCell>
        <mxCell id="uocUyu8FgRilAEcmeCP6-112" value="" style="line;strokeWidth=1;fillColor=none;align=left;verticalAlign=middle;spacingTop=-1;spacingLeft=3;spacingRight=3;rotatable=0;labelPosition=right;points=[];portConstraint=eastwest;" parent="uocUyu8FgRilAEcmeCP6-105" vertex="1">
          <mxGeometry y="130" width="160" height="10" as="geometry"/>
        </mxCell>
        <mxCell id="uocUyu8FgRilAEcmeCP6-115" value="" style="edgeStyle=orthogonalEdgeStyle;rounded=0;orthogonalLoop=1;jettySize=auto;html=1;entryX=0.462;entryY=-0.006;entryDx=0;entryDy=0;entryPerimeter=0;" parent="1" source="uocUyu8FgRilAEcmeCP6-1" target="uocUyu8FgRilAEcmeCP6-27" edge="1">
          <mxGeometry relative="1" as="geometry">
            <mxPoint x="320" y="258" as="targetPoint"/>
            <Array as="points">
              <mxPoint x="280" y="220"/>
              <mxPoint x="159" y="220"/>
            </Array>
          </mxGeometry>
        </mxCell>
        <mxCell id="uocUyu8FgRilAEcmeCP6-123" value="" style="endArrow=open;html=1;endSize=12;startArrow=diamondThin;startSize=14;startFill=0;edgeStyle=orthogonalEdgeStyle;entryX=0;entryY=0.071;entryDx=0;entryDy=0;entryPerimeter=0;" parent="1" source="uocUyu8FgRilAEcmeCP6-121" target="uocUyu8FgRilAEcmeCP6-105" edge="1">
          <mxGeometry relative="1" as="geometry">
            <mxPoint x="530" y="491" as="sourcePoint"/>
            <mxPoint x="570" y="280" as="targetPoint"/>
            <Array as="points">
              <mxPoint x="560" y="491"/>
              <mxPoint x="560" y="280"/>
            </Array>
          </mxGeometry>
        </mxCell>
        <mxCell id="uocUyu8FgRilAEcmeCP6-124" value="0..n" style="resizable=0;html=1;align=left;verticalAlign=top;labelBackgroundColor=#ffffff;fontSize=10;" parent="uocUyu8FgRilAEcmeCP6-123" connectable="0" vertex="1">
          <mxGeometry x="-1" relative="1" as="geometry"/>
        </mxCell>
        <mxCell id="uocUyu8FgRilAEcmeCP6-125" value="1" style="resizable=0;html=1;align=right;verticalAlign=top;labelBackgroundColor=#ffffff;fontSize=10;" parent="uocUyu8FgRilAEcmeCP6-123" connectable="0" vertex="1">
          <mxGeometry x="1" relative="1" as="geometry"/>
        </mxCell>
        <mxCell id="uocUyu8FgRilAEcmeCP6-126" value="Use" style="endArrow=open;endSize=12;dashed=1;html=1;" parent="1" edge="1">
          <mxGeometry width="160" relative="1" as="geometry">
            <mxPoint x="140" y="510" as="sourcePoint"/>
            <mxPoint x="680" y="410" as="targetPoint"/>
            <Array as="points">
              <mxPoint x="140" y="620"/>
              <mxPoint x="680" y="620"/>
            </Array>
          </mxGeometry>
        </mxCell>
        <mxCell id="uocUyu8FgRilAEcmeCP6-128" value="Use" style="endArrow=open;endSize=12;dashed=1;html=1;" parent="1" edge="1">
          <mxGeometry width="160" relative="1" as="geometry">
            <mxPoint x="450" y="570" as="sourcePoint"/>
            <mxPoint x="680" y="410" as="targetPoint"/>
            <Array as="points">
              <mxPoint x="450" y="620"/>
              <mxPoint x="680" y="620"/>
            </Array>
          </mxGeometry>
        </mxCell>
      </root>
    </mxGraphModel>
  </diagram>
</mxfile>
